<svg width="96" height="50" viewBox="0 0 96 50" fill="none" xmlns="http://www.w3.org/2000/svg">
<g clip-path="url(#clip0_41_2634)">
<path fill-rule="evenodd" clip-rule="evenodd" d="M60.0006 34.5726C65.4638 31.4153 73.8565 31.3116 86.8479 35.4926L85.7147 39.0092C67.1286 33.397 57.794 34.5273 55.2296 49.9999L51.567 49.7984C51.0018 43.4516 50.9697 38.0746 44.4944 36.7705C41.3605 36.1323 36.6639 36.3324 29.5622 37.6861C22.5013 39.037 13.2455 41.4947 1.08505 45.2289L0 41.7007C16.3473 36.9895 33.1386 31.3145 45.2304 33.1502C50.1256 34.1301 52.8024 36.9822 54.0364 41.1618C55.3259 38.5229 57.1952 36.1936 60.0006 34.5726Z" fill="#505050"/>
<path fill-rule="evenodd" clip-rule="evenodd" d="M37.5723 17.7361C31.4388 20.965 22.9234 21.1797 10.5964 18.0282L11.5092 14.4576C31.3161 19.0957 40.1849 17.0658 45.9738 0L49.5692 0.554939C49.6305 3.30335 49.3794 6.42999 49.7693 9.07617C50.1329 11.5296 51.0179 13.4047 53.1033 14.665C61.9312 19.2228 80.0281 14.2882 95.3619 10.097L96.3841 13.6471C79.6907 18.0925 47.8518 27.8828 46.041 9.11998C43.9702 12.7855 41.2992 15.7719 37.5723 17.7361Z" fill="#505050"/>
<path d="M87.784 20.9022V22.0018C87.5979 21.8056 87.3929 21.628 87.1721 21.4717C86.7958 21.1855 86.3657 20.9779 85.9075 20.8613C85.3936 20.713 84.8607 20.6417 84.3259 20.6495C83.4063 20.6516 82.5038 20.8991 81.7118 21.3665C80.8806 21.8457 80.19 22.5352 79.7097 23.3658C79.2117 24.2545 78.9502 25.2561 78.9502 26.2748C78.9502 27.2935 79.2117 28.2952 79.7097 29.1839C80.1894 30.0161 80.88 30.7072 81.7118 31.1875C82.4473 31.6063 83.2698 31.849 84.1148 31.8967C84.9598 31.9443 85.8043 31.7955 86.5822 31.4621C87.033 31.2334 87.4399 30.9269 87.784 30.5566V31.6519H90.5427V20.9022H87.784ZM87.3839 27.7965C87.1301 28.2468 86.7579 28.619 86.3076 28.8728C85.8436 29.1294 85.3205 29.2603 84.7903 29.2525C84.26 29.2569 83.7374 29.1262 83.2715 28.8728C82.816 28.6133 82.4396 28.2349 82.1824 27.7781C81.9252 27.3213 81.7969 26.8033 81.8112 26.2792C81.8052 25.7557 81.9361 25.2397 82.1908 24.7823C82.4437 24.3323 82.8156 23.9604 83.2657 23.7075C83.7271 23.4407 84.2515 23.3021 84.7845 23.3059C85.3194 23.2978 85.8463 23.4367 86.3076 23.7075C86.764 23.9525 87.1383 24.3262 87.3839 24.7823C87.6414 25.2414 87.7739 25.7601 87.768 26.2865C87.7732 26.8147 87.6408 27.3351 87.3839 27.7965Z" fill="#505050"/>
<path d="M80.0644 31.6562H76.6063L72.5158 27.0794V31.6562H69.6272V20.9036H72.5158V25.4803L76.396 20.9036H79.7271L75.1138 26.1477L80.0644 31.6562Z" fill="#505050"/>
<path d="M52.8564 31.6562V20.9036H55.745V28.9998H59.0133V20.9036H61.9019V28.9998H65.1688V20.9036H68.053V31.6562H52.8564Z" fill="#505050"/>
<path d="M48.3936 20.9036V31.6562H51.2822V20.9036H48.3936Z" fill="#505050"/>
<path d="M46.7068 26.0689C46.3428 25.4962 45.813 25.0479 45.188 24.7838C44.4446 24.4572 43.6383 24.2986 42.8266 24.3194H40.9091V20.9036H38.0205V31.6562H42.8266C43.6358 31.6779 44.4404 31.5286 45.188 31.2181C45.8075 30.9444 46.3349 30.4977 46.7068 29.9315C47.0764 29.3532 47.2669 28.6785 47.2544 27.9922C47.27 27.3105 47.0791 26.6401 46.7068 26.0689ZM43.9233 28.9151C43.6312 29.14 43.1887 29.2525 42.5958 29.2525H40.9091V26.7246H42.5958C43.1858 26.7246 43.6283 26.837 43.9233 27.0619C44.0615 27.1738 44.1729 27.3151 44.2494 27.4755C44.326 27.636 44.3657 27.8115 44.3657 27.9893C44.3657 28.167 44.326 28.3425 44.2494 28.503C44.1729 28.6634 44.0615 28.8047 43.9233 28.9166V28.9151Z" fill="#505050"/>
<path d="M26.3333 31.6562V20.9036H36.4331V31.6562H33.5241V23.56H29.2219V31.6562H26.3333Z" fill="#505050"/>
<path d="M20.1633 31.9089C19.1511 31.9159 18.1523 31.6768 17.2528 31.2124C16.3792 30.7457 15.6392 30.0635 15.1032 29.2306C14.5783 28.3393 14.3015 27.3238 14.3015 26.2895C14.3015 25.2551 14.5783 24.2396 15.1032 23.3483C15.6317 22.5091 16.3735 21.8253 17.2528 21.3666C18.1485 20.8897 19.1487 20.6433 20.1633 20.6495C20.9752 20.6494 21.7786 20.8143 22.5248 21.1344C23.286 21.4455 23.9645 21.9295 24.5065 22.548C25.0905 23.1856 25.5021 23.9617 25.7025 24.8028H22.7555C22.4926 24.3297 22.1066 23.9366 21.6383 23.6652C21.1895 23.4088 20.6801 23.2777 20.1633 23.2855C19.6238 23.2792 19.0923 23.4174 18.6241 23.6856C18.1788 23.9477 17.8141 24.3271 17.5697 24.7824C17.315 25.2397 17.1841 25.7557 17.19 26.2792C17.1823 26.8095 17.3131 27.3325 17.5697 27.7966C17.819 28.2429 18.183 28.6145 18.6241 28.8728C19.0966 29.128 19.6264 29.2587 20.1633 29.2525C20.6892 29.2677 21.2092 29.138 21.6663 28.8776C22.1235 28.6172 22.5003 28.2362 22.7555 27.7761H25.7025C25.4974 28.6231 25.0843 29.4056 24.5006 30.0528C23.9537 30.6605 23.2761 31.1363 22.5189 31.4446C21.7715 31.7514 20.9713 31.9092 20.1633 31.9089Z" fill="#505050"/>
<path d="M13.967 27.2708C13.775 26.8972 13.4916 26.5783 13.1433 26.3435C12.8999 26.1706 12.6335 26.0324 12.3518 25.9331C12.6771 25.7598 12.9614 25.5188 13.1857 25.2263C13.5337 24.7974 13.7198 24.2598 13.7114 23.7075C13.7222 23.1868 13.5689 22.6759 13.2733 22.2471C12.9541 21.7951 12.5064 21.4496 11.9882 21.2556C11.3301 21 10.6275 20.8783 9.92178 20.8978H4.79443V31.6504H10.2139C11.4931 31.6504 12.4842 31.3764 13.1872 30.8283C13.8901 30.2801 14.2484 29.5139 14.262 28.5296C14.2696 28.092 14.1682 27.6594 13.967 27.2708ZM7.59395 23.0971H9.47637C9.9539 23.0971 10.3117 23.1803 10.5512 23.3497C10.6667 23.4291 10.7602 23.5365 10.8228 23.662C10.8854 23.7874 10.915 23.9267 10.909 24.0668C10.9136 24.2627 10.8547 24.4548 10.741 24.6144C10.6223 24.7696 10.461 24.8868 10.2766 24.9517C10.0203 25.0441 9.74875 25.0872 9.47637 25.0788H7.59395V23.0971ZM10.9674 29.1474C10.6855 29.3577 10.2781 29.4643 9.74361 29.4643H7.59395V27.1627H9.74945C10.2839 27.1627 10.6919 27.2679 10.9732 27.4782C11.1075 27.5689 11.2164 27.6925 11.2895 27.8372C11.3626 27.9818 11.3975 28.1428 11.3909 28.3047C11.3956 28.4686 11.3599 28.6312 11.2871 28.7781C11.2143 28.925 11.1065 29.0518 10.9732 29.1474H10.9674Z" fill="#505050"/>
</g>
<defs>
<clipPath id="clip0_41_2634">
<rect width="96" height="50" fill="white"/>
</clipPath>
</defs>
</svg>
