<svg width="852" height="227" viewBox="0 0 852 227" fill="none" xmlns="http://www.w3.org/2000/svg">
<path fill-rule="evenodd" clip-rule="evenodd" d="M719.462 4.05526L671.133 192.411L621.974 4.05526H555.324L500.98 212.277L455.213 108.648L499.018 4.05526H435.588L403.068 91.0126V4.05526H340.282V73.8637C338.811 63.3722 335.993 53.6203 331.828 44.6079C325.603 30.6744 316.695 19.7564 305.104 11.8539C293.512 3.95129 279.989 0 264.534 0C244.786 0 226.97 6.44683 211.086 19.3405C195.202 32.2342 182.752 49.0791 173.736 69.8753C167.609 84.3552 163.614 99.2384 161.753 114.525L133.891 4.05526H56.8297L0.801758 222.416H65.8973L94.426 96.7422L122.286 222.416H188.964L184.239 203.679C188.053 207.808 192.279 211.454 196.919 214.617C208.51 222.52 222.033 226.471 237.488 226.471C257.236 226.471 275.052 220.024 290.937 207.13C306.821 194.237 319.163 177.392 327.964 156.596C334.289 142.007 338.395 127.009 340.282 111.602V222.416H403.068V131.218L439.13 222.416H498.334H505.458H560.154L568.992 179.991H606.374L615.212 222.416H638.338H663.434H728.53L757.058 96.7422L784.918 222.416H851.598L796.525 4.05526H719.462ZM261.637 159.403C255.841 168.761 249.079 173.441 241.352 173.441C237.488 173.441 234.161 172.089 231.371 169.385C228.58 166.682 226.434 162.731 224.931 157.531C223.428 152.124 222.677 145.574 222.677 137.879C222.677 126.649 224.18 114.379 227.185 101.07C230.19 87.7601 234.59 76.4261 240.386 67.0678C246.182 57.7095 252.943 53.0304 260.671 53.0304C264.534 53.0304 267.862 54.3821 270.652 57.0857C273.442 59.7892 275.589 63.8444 277.092 69.2514C278.594 74.4505 279.345 80.8973 279.345 88.5919C279.345 99.8219 277.843 112.092 274.838 125.401C271.833 138.711 267.432 150.045 261.637 159.403ZM600.802 134.76L587.683 65.0636L574.563 134.76H600.802Z" fill="#141414"/>
</svg>
